<?xml version="1.0" encoding="UTF-8" standalone="no"?>
<!-- Created with Inkscape (http://www.inkscape.org/) -->

<svg
   xmlns:dc="http://purl.org/dc/elements/1.1/"
   xmlns:cc="http://creativecommons.org/ns#"
   xmlns:rdf="http://www.w3.org/1999/02/22-rdf-syntax-ns#"
   xmlns:svg="http://www.w3.org/2000/svg"
   xmlns="http://www.w3.org/2000/svg"
   xmlns:sodipodi="http://sodipodi.sourceforge.net/DTD/sodipodi-0.dtd"
   xmlns:inkscape="http://www.inkscape.org/namespaces/inkscape"
   width="120"
   height="199.4691"
   viewBox="0 0 31.750001 52.776201"
   version="1.1"
   id="svg6013"
   inkscape:version="0.92.0 r15299"
   sodipodi:docname="UJ_logo.svg">
  <defs
     id="defs6007">
    <clipPath
       clipPathUnits="userSpaceOnUse"
       id="clipPath1176">
      <path
         d="m 326.962,200.524 h 204.895 v 79.911 H 326.962 Z"
         id="path1174"
         inkscape:connector-curvature="0" />
    </clipPath>
  </defs>
  <sodipodi:namedview
     id="base"
     pagecolor="#ffffff"
     bordercolor="#666666"
     borderopacity="1.0"
     inkscape:pageopacity="0.0"
     inkscape:pageshadow="2"
     inkscape:zoom="1.979899"
     inkscape:cx="140.81703"
     inkscape:cy="131.86397"
     inkscape:document-units="mm"
     inkscape:current-layer="layer1"
     showgrid="false"
     inkscape:window-width="1366"
     inkscape:window-height="705"
     inkscape:window-x="-8"
     inkscape:window-y="-8"
     inkscape:window-maximized="1"
     fit-margin-top="0"
     fit-margin-left="0"
     fit-margin-right="0"
     fit-margin-bottom="0"
     units="px" />
  <metadata
     id="metadata6010">
    <rdf:RDF>
      <cc:Work
         rdf:about="">
        <dc:format>image/svg+xml</dc:format>
        <dc:type
           rdf:resource="http://purl.org/dc/dcmitype/StillImage" />
        <dc:title></dc:title>
      </cc:Work>
    </rdf:RDF>
  </metadata>
  <g
     inkscape:label="Layer 1"
     inkscape:groupmode="layer"
     id="layer1"
     transform="translate(121.17105,-111.00326)">
    <g
       id="g7092"
       transform="matrix(2.2032928,0,0,2.2032928,145.80427,-197.07465)">
      <path
         d="m -106.76081,156.5746 c 0,3.97919 -3.2262,7.20486 -7.20539,7.20486 -3.97919,0 -7.20486,-3.22514 -7.20486,-7.20433 l 10e-4,-8.59687 14.4092,-5.3e-4 z"
         style="fill:#1c58aa;fill-opacity:1;fill-rule:evenodd;stroke:none;stroke-width:0.52767408"
         id="path1180"
         inkscape:connector-curvature="0" />
      <path
         d="m -111.95144,152.97602 0.75299,0.58836 -3.93381,5.03612 -0.75299,-0.58836 z"
         style="fill:#fbc707;fill-opacity:1;fill-rule:evenodd;stroke:none;stroke-width:0.52767408"
         id="path1184"
         inkscape:connector-curvature="0" />
      <path
         d="m -116.85996,161.40461 c -0.13086,0.15619 -0.36462,0.17783 -0.50182,0.0723 l -0.76354,-0.59627 c -0.13614,-0.10659 -0.18522,-0.3298 -0.0554,-0.49601 l 0.11081,-0.14142 c 0.13245,-0.16991 0.35777,-0.17255 0.49443,-0.0623 l 0.76302,0.59469 c 0.13878,0.10976 0.17202,0.34352 0.066,0.48388 z"
         style="fill:#fbc707;fill-opacity:1;fill-rule:evenodd;stroke:none;stroke-width:0.52767408"
         id="path1188"
         inkscape:connector-curvature="0" />
      <path
         d="m -111.20884,150.39453 -0.23587,0.50973 c -0.0111,0.0222 -0.003,0.0739 0.0238,0.0955 0.19523,0.1678 0.29074,0.44008 0.2728,0.6654 0,0.2459 -0.0828,0.42003 -0.29761,0.66434 l 0.75563,0.59047 c 0.18469,-0.26753 0.33349,-0.38995 0.57253,-0.44958 0.21424,-0.0723 0.50182,-0.0454 0.71183,0.10342 0.0274,0.0206 0.0791,0.0164 0.0981,0 l 0.43744,-0.35195 z"
         style="fill:#fbc707;fill-opacity:1;fill-rule:evenodd;stroke:none;stroke-width:0.52767408"
         id="path1192"
         inkscape:connector-curvature="0" />
      <path
         d="m -108.75542,152.1262 1.18832,-0.92448 c 0.0179,-0.0143 0.0132,-0.0839 -0.0522,-0.0707 l -0.73083,0.0681 0.005,-0.52029 c 0.003,-0.0338 -0.0475,-0.0781 -0.0818,-0.067 l -0.50181,0.13825 0.24325,-1.10812 c 0.006,-0.0206 -0.005,-0.0417 -0.0127,-0.0496 -0.01,-0.006 -0.0332,-0.0111 -0.0517,-0.001 l -1.0163,0.50446 0.0132,-0.52029 c 0.002,-0.0359 -0.0533,-0.0739 -0.085,-0.0633 l -0.50393,0.13087 -0.11081,-0.72556 c -0.003,-0.067 -0.0718,-0.0549 -0.0813,-0.0338 l -0.60946,1.3767 z"
         style="fill:#fbc707;fill-opacity:1;fill-rule:evenodd;stroke:none;stroke-width:0.52767408"
         id="path1196"
         inkscape:connector-curvature="0" />
      <path
         d="m -110.70433,153.10018 c 0.21001,0.16094 -0.10765,0.58414 -0.32557,0.41686 l -0.91341,-0.71341 c -0.21476,-0.17097 0.11926,-0.5815 0.3261,-0.41687 z"
         style="fill:#fbc707;fill-opacity:1;fill-rule:evenodd;stroke:none;stroke-width:0.52767408"
         id="path1200"
         inkscape:connector-curvature="0" />
      <path
         d="m -115.14629,158.78555 c 0.21001,0.16094 -0.10765,0.58414 -0.32557,0.41686 l -0.91341,-0.71341 c -0.21476,-0.17097 0.11926,-0.5815 0.3261,-0.41687 z"
         style="fill:#fbc707;fill-opacity:1;fill-rule:evenodd;stroke:none;stroke-width:0.52767408"
         id="path1204"
         inkscape:connector-curvature="0" />
      <path
         d="m -116.39783,158.67337 0.75405,0.58941 -1.08648,1.39042 -0.75405,-0.58941 z"
         style="fill:#fbc707;fill-opacity:1;fill-rule:evenodd;stroke:none;stroke-width:0.52767408"
         id="path1208"
         inkscape:connector-curvature="0" />
      <path
         d="m -113.26703,156.44379 1.2374,1.58408 -0.753,0.58835 -1.0907,-1.39622 z m -2.72069,-3.4837 1.93393,2.47637 -0.6063,0.77621 -2.08062,-2.66423 z"
         style="fill:#fbc707;fill-opacity:1;fill-rule:evenodd;stroke:none;stroke-width:0.52767408"
         id="path1212"
         inkscape:connector-curvature="0" />
      <path
         d="m -111.05481,161.42044 c 0.13086,0.15619 0.36462,0.17783 0.50182,0.0723 l 0.76354,-0.59627 c 0.13614,-0.10659 0.18522,-0.3298 0.0554,-0.49601 l -0.11081,-0.14142 c -0.13245,-0.16991 -0.35777,-0.17255 -0.49443,-0.0623 l -0.76302,0.59469 c -0.13878,0.10976 -0.17202,0.34352 -0.066,0.48388 z"
         style="fill:#fbc707;fill-opacity:1;fill-rule:evenodd;stroke:none;stroke-width:0.52767408"
         id="path1216"
         inkscape:connector-curvature="0" />
      <path
         d="m -116.73058,150.3787 0.23587,0.50973 c 0.0111,0.0222 0.003,0.0739 -0.0238,0.0955 -0.19576,0.1678 -0.29127,0.44008 -0.2728,0.6654 0,0.2459 0.0828,0.42003 0.29761,0.66434 l -0.75563,0.59047 c -0.18522,-0.26753 -0.33402,-0.38995 -0.57253,-0.44958 -0.21476,-0.0723 -0.50182,-0.0454 -0.71183,0.10342 -0.0274,0.0206 -0.0791,0.0164 -0.0981,0 l -0.43744,-0.35195 z"
         style="fill:#fbc707;fill-opacity:1;fill-rule:evenodd;stroke:none;stroke-width:0.52767408"
         id="path1220"
         inkscape:connector-curvature="0" />
      <path
         d="m -119.184,152.11032 -1.18832,-0.92448 c -0.0179,-0.0143 -0.0132,-0.0839 0.0522,-0.0707 l 0.73083,0.0681 -0.005,-0.52029 c -0.003,-0.0338 0.0475,-0.0781 0.0818,-0.067 l 0.50181,0.13825 -0.24325,-1.10812 c -0.006,-0.0206 0.005,-0.0417 0.0127,-0.0496 0.01,-0.006 0.0332,-0.0111 0.0517,-0.001 l 1.0163,0.50446 -0.0132,-0.52029 c -0.002,-0.0359 0.0533,-0.0739 0.085,-0.0633 l 0.50393,0.13087 0.11081,-0.72556 c 0.003,-0.067 0.0718,-0.0549 0.0813,-0.0338 l 0.60946,1.3767 z"
         style="fill:#fbc707;fill-opacity:1;fill-rule:evenodd;stroke:none;stroke-width:0.52767408"
         id="path1224"
         inkscape:connector-curvature="0" />
      <path
         d="m -117.23514,153.08435 c -0.21001,0.16094 0.10765,0.58414 0.32557,0.41686 l 0.91341,-0.71341 c 0.21476,-0.17097 -0.11926,-0.5815 -0.3261,-0.41687 z"
         style="fill:#fbc707;fill-opacity:1;fill-rule:evenodd;stroke:none;stroke-width:0.52767408"
         id="path1228"
         inkscape:connector-curvature="0" />
      <path
         d="m -112.76843,158.80138 c -0.21001,0.16094 0.10765,0.58414 0.32557,0.41686 l 0.91341,-0.71341 c 0.21476,-0.17097 -0.11926,-0.5815 -0.3261,-0.41687 z"
         style="fill:#fbc707;fill-opacity:1;fill-rule:evenodd;stroke:none;stroke-width:0.52767408"
         id="path1232"
         inkscape:connector-curvature="0" />
      <path
         d="m -111.5169,158.6892 -0.75405,0.58941 1.08648,1.39042 0.75405,-0.58941 z"
         style="fill:#fbc707;fill-opacity:1;fill-rule:evenodd;stroke:none;stroke-width:0.52767408"
         id="path1236"
         inkscape:connector-curvature="0" />
      <path
         d="m -118.345,147.3126 -0.3604,-0.97303 -0.73505,-1.93498 c -0.53348,-1.40414 -1.07012,-2.81831 -1.09229,-2.86316 l -0.048,-0.13931 c 0,0 0.0222,-0.0654 0.0696,-0.0828 0.0348,-0.0216 0.27808,0.1087 0.5187,0.18521 0.1678,0.0528 0.36937,0.14247 0.61052,0.1963 0.25434,0.0596 0.35935,0.10606 0.53665,0.34932 0.0813,0.12875 0.0802,0.33243 0.0755,0.47015 0.23218,-0.4253 0.56672,-0.70075 1.10231,-0.62054 0.6348,0.0797 0.8923,0.93609 0.52821,1.28436 -0.11187,0.1335 -0.36304,0.37095 -0.11662,0.51237 0.0512,0.0206 0.11239,0.006 0.11239,0.006 0,0 -0.0253,0.13298 -0.067,0.1926 -0.11926,0.17466 -0.56778,0.37149 -0.80101,0.0369 -0.0992,-0.15514 -0.11662,-0.24273 -0.0765,-0.41581 l 0.0369,-0.15144 c -0.004,-0.0929 -0.12505,-0.15144 -0.24747,-0.11556 -0.0459,0.0164 -0.14142,0.0902 -0.15778,0.36357 -0.0496,0.67753 0.36568,1.56666 1.28489,1.32182 0.46277,-0.12295 0.58572,-0.29866 0.6026,-0.55458 -0.20315,-0.0686 -0.34932,-0.26068 -0.34932,-0.48652 0,-0.28336 0.19471,-0.51343 0.47807,-0.51343 0.28336,0 0.51343,0.23007 0.51343,0.51343 0,0.15883 -0.0723,0.30077 -0.18574,0.3947 0.10712,0.2459 0.24326,0.38626 0.73663,0.34246 0.94718,-0.0844 1.06168,-1.06696 0.7836,-1.68697 -0.11081,-0.25487 -0.22796,-0.28864 -0.27545,-0.28706 -0.12611,0.009 -0.21846,0.10448 -0.19049,0.19313 l 0.0865,0.12928 c 0.0971,0.1488 0.11081,0.23745 0.0707,0.41686 -0.10501,0.39418 -0.59416,0.36304 -0.76566,0.23904 -0.0733,-0.0543 -0.13033,-0.16938 -0.13033,-0.16938 0,0 0.0897,-0.004 0.10501,-0.0327 0.18415,-0.21846 -0.1372,-0.35565 -0.28811,-0.44377 -0.45803,-0.2058 -0.50868,-1.09545 0.0612,-1.38568 0.45538,-0.24747 0.77884,-0.13455 1.10969,0.10501 0.0338,0.0243 0.0633,0.0612 0.0855,0.0855 -0.019,-0.0443 -0.0259,-0.0517 -0.0486,-0.0966 -0.0227,-0.0496 -0.0501,-0.10659 -0.0543,-0.16938 -0.0311,-0.19313 0.003,-0.3947 0.0871,-0.54562 0.0834,-0.14405 0.20157,-0.26172 0.30446,-0.39153 0.11082,-0.14089 0.23693,-0.31397 0.35038,-0.59575 0.0179,-0.0317 0.0554,-0.13825 0.0828,-0.15408 0.009,-0.007 0.0195,-0.0121 0.0406,-0.0148 0.0216,0.003 0.0348,0.007 0.0438,0.0148 0.0274,0.0158 0.0649,0.12242 0.0828,0.15408 0.11345,0.28178 0.23956,0.45486 0.35037,0.59575 0.1029,0.12981 0.2211,0.24748 0.30447,0.39153 0.0839,0.15092 0.1182,0.35249 0.0871,0.54562 -0.005,0.0628 -0.0317,0.11978 -0.0543,0.16938 -0.0227,0.0448 -0.0296,0.0522 -0.0486,0.0966 0.0222,-0.0243 0.0517,-0.0612 0.0855,-0.0855 0.33086,-0.23956 0.65432,-0.35248 1.10918,-0.10501 0.57041,0.29023 0.51975,1.17988 0.0617,1.38568 -0.15091,0.0881 -0.47227,0.22531 -0.28811,0.44377 0.0153,0.029 0.10501,0.0327 0.10501,0.0327 0,0 -0.0575,0.11503 -0.13034,0.16938 -0.17149,0.124 -0.66064,0.15514 -0.76565,-0.23904 -0.0401,-0.17941 -0.0264,-0.26806 0.0707,-0.41686 l 0.0865,-0.12928 c 0.028,-0.0887 -0.0644,-0.18416 -0.19049,-0.19313 -0.0475,-0.002 -0.16464,0.0322 -0.27545,0.28706 -0.27861,0.62001 -0.16358,1.60254 0.7836,1.68697 0.49337,0.0438 0.62951,-0.0966 0.73663,-0.34246 -0.11345,-0.0939 -0.18574,-0.23587 -0.18574,-0.3947 0,-0.28336 0.23006,-0.51343 0.51342,-0.51343 0.28337,0 0.47808,0.23007 0.47808,0.51343 0,0.22584 -0.14617,0.41792 -0.34932,0.48652 0.0169,0.25592 0.13983,0.43163 0.6026,0.55458 0.91921,0.24484 1.33449,-0.64429 1.28489,-1.32182 -0.0164,-0.27334 -0.11187,-0.34721 -0.1583,-0.36357 -0.1219,-0.0359 -0.24326,0.0227 -0.24748,0.11556 l 0.0375,0.15144 c 0.0401,0.17308 0.0227,0.26067 -0.0765,0.41581 -0.23376,0.33455 -0.68228,0.13772 -0.80154,-0.0369 -0.0412,-0.0596 -0.0665,-0.1926 -0.0665,-0.1926 0,0 0.0612,0.0143 0.1124,-0.006 0.24642,-0.14142 -0.005,-0.37887 -0.11662,-0.51237 -0.36409,-0.34827 -0.10659,-1.20468 0.5282,-1.28436 0.53559,-0.0802 0.87014,0.19524 1.10232,0.62054 -0.005,-0.13772 -0.006,-0.3414 0.0755,-0.47015 0.1773,-0.24326 0.28231,-0.2897 0.53665,-0.34932 0.24114,-0.0538 0.44272,-0.14353 0.61052,-0.1963 0.24062,-0.0765 0.48387,-0.20685 0.5187,-0.18521 0.0475,0.0174 0.0696,0.0828 0.0696,0.0828 l -0.048,0.13931 c -0.0222,0.0448 -0.5588,1.45902 -1.09228,2.86316 l -0.73505,1.93498 -0.3604,0.97303 z"
         style="fill:#1c58aa;fill-opacity:1;fill-rule:nonzero;stroke:none;stroke-width:0.52767408"
         id="path1240"
         inkscape:connector-curvature="0" />
      <path
         d="m -118.24769,147.14501 c -0.0111,-0.0127 -2.11281,-5.56749 -2.1566,-5.65667 0.1393,0.0428 0.49284,0.24168 0.98886,0.35355 0.16358,0.038 0.2728,0.0459 0.4501,0.28969 0.0955,0.15091 0.077,0.38573 0.0501,0.51923 0.0211,0.0665 0.13773,0.11662 0.19735,0.0406 0.14933,-0.25961 0.36568,-0.74771 1.01789,-0.65009 0.53347,0.0654 0.72027,0.79204 0.44377,1.04532 -0.10026,0.12084 -0.48177,0.49496 -0.0839,0.72397 -0.0955,0.13983 -0.4195,0.25012 -0.56778,0.0375 -0.10923,-0.17044 -0.0807,-0.19629 -0.0158,-0.4691 0.0132,-0.26859 -0.2918,-0.30341 -0.42372,-0.26489 -0.12242,0.0401 -0.2364,0.18205 -0.25487,0.4844 -0.0512,0.69548 0.42795,1.75452 1.49332,1.47063 0.59838,-0.15936 0.65748,-0.45222 0.66223,-0.81103 -0.19577,-0.0106 -0.3509,-0.17308 -0.3509,-0.37149 0,-0.20526 0.16674,-0.37201 0.37201,-0.37201 0.20579,0 0.37254,0.16675 0.37254,0.37201 0,0.14828 -0.0865,0.27598 -0.21213,0.33613 0.008,0.0348 0.0296,0.0871 0.0433,0.12189 0.12348,0.28389 0.30552,0.48441 0.85905,0.43481 1.09809,-0.0976 1.18622,-1.25639 0.90022,-1.89224 -0.12084,-0.27809 -0.27651,-0.37201 -0.40526,-0.36779 -0.13667,0.008 -0.41158,0.14564 -0.3071,0.39312 0.15408,0.23428 0.18943,0.24906 0.14563,0.44694 -0.067,0.25011 -0.40894,0.2575 -0.54667,0.1583 0.2955,-0.3509 -0.19049,-0.572 -0.32663,-0.65115 -0.34615,-0.14353 -0.41897,-0.89071 0.0596,-1.13397 0.57991,-0.31502 0.94981,0.0696 1.17935,0.26225 0.0818,0.0512 0.17413,-0.0353 0.1715,-0.10501 -0.058,-0.095 -0.1868,-0.22215 -0.1926,-0.37253 -0.0274,-0.16517 0.002,-0.33455 0.0697,-0.45644 0.13667,-0.23587 0.41317,-0.41317 0.65642,-0.98834 0.24326,0.57517 0.51818,0.75247 0.65485,0.98834 0.0675,0.12189 0.0971,0.29127 0.0696,0.45644 -0.006,0.15038 -0.13456,0.27755 -0.1926,0.37253 -0.002,0.0697 0.0902,0.1562 0.17202,0.10501 0.22901,-0.1926 0.59944,-0.57727 1.17883,-0.26225 0.4786,0.24326 0.40578,0.99044 0.0596,1.13397 -0.13561,0.0792 -0.62212,0.30025 -0.3261,0.65115 -0.13825,0.0992 -0.48018,0.0918 -0.54667,-0.1583 -0.0443,-0.19788 -0.009,-0.21266 0.14564,-0.44694 0.10395,-0.24748 -0.17097,-0.38468 -0.30764,-0.39312 -0.12875,-0.004 -0.28441,0.0897 -0.40525,0.36779 -0.286,0.63585 -0.19788,1.79462 0.90021,1.89224 0.55353,0.0496 0.73558,-0.15092 0.85906,-0.43481 0.0137,-0.0348 0.0348,-0.0871 0.0433,-0.12189 -0.12505,-0.0601 -0.21159,-0.18785 -0.21159,-0.33613 0,-0.20526 0.16621,-0.37201 0.37201,-0.37201 0.20526,0 0.37201,0.16675 0.37201,0.37201 0,0.19841 -0.15514,0.36093 -0.35091,0.37149 0.005,0.35881 0.0638,0.65167 0.66276,0.81103 1.06538,0.28389 1.54398,-0.77515 1.49279,-1.47063 -0.0185,-0.30235 -0.13244,-0.4443 -0.25486,-0.4844 -0.13192,-0.0385 -0.43639,-0.004 -0.42373,0.26489 0.0654,0.27281 0.0934,0.29866 -0.0158,0.4691 -0.14827,0.21266 -0.47226,0.10237 -0.56777,-0.0375 0.39786,-0.22901 0.0163,-0.60313 -0.0839,-0.72397 -0.2765,-0.25328 -0.0892,-0.97989 0.44377,-1.04532 0.65221,-0.0976 0.86855,0.39048 1.01841,0.65009 0.0591,0.076 0.17572,0.0259 0.19735,-0.0406 -0.0269,-0.1335 -0.0454,-0.36832 0.0496,-0.51923 0.1773,-0.24379 0.28653,-0.2517 0.45011,-0.28969 0.49654,-0.11187 0.85008,-0.3108 0.98886,-0.35355 -0.0438,0.0892 -2.14552,5.64401 -2.1566,5.65667 z"
         style="fill:#fbc707;fill-opacity:1;fill-rule:nonzero;stroke:none;stroke-width:0.52767408"
         id="path1244"
         inkscape:connector-curvature="0" />
    </g>
  </g>
</svg>
